<?xml version="1.0" encoding="iso-8859-1"?>
<!-- Generator: Adobe Illustrator 19.0.0, SVG Export Plug-In . SVG Version: 6.00 Build 0)  -->
<svg xmlns="http://www.w3.org/2000/svg" xmlns:xlink="http://www.w3.org/1999/xlink" version="1.1" id="Capa_1" x="0px" y="0px" viewBox="0 0 512 512" style="enable-background:new 0 0 512 512;" xml:space="preserve">
<g>
	<g>
		<path style="fill:#FBBE3F;" d="M467.439,385.115C476.502,374.603,482,360.936,482,346c0-33.084-26.916-60-60-60s-60,26.916-60,60    c0,8.207,1.66,16.032,4.656,23.163L271,321.698V226h60c8.284,0,15-6.716,15-15v-22.918c0-31.745-18.126-59.317-44.561-72.967    C310.502,104.603,316,90.936,316,76c0-33.084-26.916-60-60-60s-60,26.916-60,60c0,14.936,5.498,28.603,14.56,39.115    c-26.434,13.65-44.56,41.222-44.56,72.967V211c0,8.284,6.716,15,15,15h60v95.606l-95.101,46.153    C148.536,361.008,150,353.674,150,346c0-33.084-26.916-60-60-60s-60,26.916-60,60c0,14.936,5.498,28.603,14.56,39.115    C18.126,398.765,0,426.337,0,458.082V481c0,8.284,6.716,15,15,15h150c8.284,0,15-6.716,15-15v-22.918    c0-23.951-10.315-45.534-26.731-60.553l102.658-49.821l101.983,50.604c-15.932,14.982-25.91,36.227-25.91,59.77V481    c0,8.284,6.716,15,15,15h150c8.284,0,15-6.716,15-15v-22.918C512,426.337,493.874,398.765,467.439,385.115z M90,316    c16.542,0,30,13.458,30,30s-13.458,30-30,30s-30-13.458-30-30S73.458,316,90,316z M150,466H30v-7.918    C30,429.364,53.364,406,82.082,406h15.836C126.636,406,150,429.364,150,458.082V466z M256,46c16.542,0,30,13.458,30,30    s-13.458,30-30,30s-30-13.458-30-30S239.458,46,256,46z M196,196v-7.918C196,159.364,219.364,136,248.082,136h15.836    C292.636,136,316,159.364,316,188.082V196H196z M422,316c16.542,0,30,13.458,30,30s-13.458,30-30,30s-30-13.458-30-30    S405.458,316,422,316z M482,466H362v-7.918C362,429.364,385.364,406,414.082,406h15.836C458.636,406,482,429.364,482,458.082V466z    "/>
	</g>
</g>
<g>
</g>
<g>
</g>
<g>
</g>
<g>
</g>
<g>
</g><g></g><g></g><g></g><g></g><g></g><g></g><g></g><g></g><g></g><g></g>
</svg>