<?xml version="1.0" encoding="iso-8859-1"?>
<!-- Generator: Adobe Illustrator 19.0.0, SVG Export Plug-In . SVG Version: 6.00 Build 0)  -->
<svg xmlns="http://www.w3.org/2000/svg" xmlns:xlink="http://www.w3.org/1999/xlink" version="1.1" id="Capa_1" x="0px" y="0px" viewBox="0 0 512 512" style="enable-background:new 0 0 512 512;" xml:space="preserve">
<g>
	<g>
		<path style="fill:#FBBE3F;" d="M498.819,326.607c-0.041-0.042-0.082-0.082-0.124-0.123l-43.369-42.372C446.834,275.656,435.562,271,423.573,271H421v-45    c0-24.813-20.187-45-45-45h-15V87.426c0-12.02-4.681-23.32-13.181-31.819L305.394,13.18C296.895,4.68,285.594,0,273.574,0H166    c-8.284,0-15,6.716-15,15v166h-15c-24.813,0-45,20.187-45,45v45H15c-8.284,0-15,6.716-15,15v211c0,8.284,6.716,15,15,15h181    c8.284,0,15-6.716,15-15V358.426c0-12.02-4.681-23.32-13.181-31.819l-42.426-42.427c-8.499-8.5-19.8-13.18-31.82-13.18H121v-45    c0-8.271,6.729-15,15-15h15v15c0,8.284,6.716,15,15,15h180c8.284,0,15-6.716,15-15v-15h15c8.271,0,15,6.729,15,15v45h-75    c-8.284,0-15,6.716-15,15v211c0,8.284,6.716,15,15,15h181c8.284,0,15-6.716,15-15V358.426    C512,346.406,507.319,335.106,498.819,326.607z M121.001,301h2.573c4.006,0,7.774,1.56,10.607,4.393l42.426,42.427    c2.833,2.833,4.394,6.6,4.394,10.606V361h-60V301z M181,391v91H30V301h61v75c0,8.284,6.716,15,15,15H181z M331,211H181V30h60v75    c0,8.284,6.716,15,15,15h75V211z M331.001,90h-60V30h2.573c4.006,0,7.774,1.56,10.607,4.393l42.426,42.427    c2.833,2.833,4.394,6.6,4.394,10.606V90z M482,482H331V301h60v75c0,8.284,6.716,15,15,15h76V482z M482.001,361h-61v-60h2.573    c4.006,0,7.774,1.56,10.607,4.393c0.041,0.042,0.082,0.082,0.124,0.123l43.353,42.355c2.801,2.828,4.343,6.573,4.343,10.555V361z"/>
	</g>
</g>
<g>
</g>
<g>
</g>
<g>
</g>
<g>
</g>
<g>
</g>
<g>
</g>
<g>
</g>
<g>
</g>
<g>
</g>
<g>
</g>
<g>
</g>
<g>
</g>
<g>
</g>
<g>
</g>
<g>
</g>
</svg>
